<svg version="1.0" xmlns="http://www.w3.org/2000/svg"
 viewBox="0 0 550.000000 315.000000"
 preserveAspectRatio="xMidYMid meet" style="width:100%;height:auto;display:block;">

<g transform="translate(0.000000,315.000000) scale(0.100000,-0.100000)"
fill="currentColor" stroke="none">
<path d="M855 2339 c-158 -16 -259 -52 -356 -128 -72 -56 -110 -113 -136 -204
-13 -44 -24 -81 -26 -82 -1 0 -46 -8 -100 -17 -53 -9 -109 -24 -123 -33 -36
-23 -64 -93 -71 -173 -5 -57 -3 -71 12 -86 24 -24 33 -12 56 80 12 44 27 86
35 95 8 8 14 23 14 32 0 9 10 19 22 21 29 6 138 14 138 10 0 -2 -9 -41 -19
-86 -47 -199 -111 -544 -111 -591 l1 -52 49 55 c28 30 59 73 70 95 14 29 20
34 20 19 0 -24 -44 -88 -106 -156 l-44 -47 3 -122 2 -122 35 -15 c19 -8 72
-17 116 -20 l82 -5 -15 64 c-29 121 -6 555 44 832 l18 97 162 0 163 0 0 -49 0
-49 -76 -23 c-127 -38 -143 -65 -166 -292 -13 -120 -11 -117 -93 -136 l-50
-12 7 -187 c3 -103 9 -199 13 -215 l7 -27 179 0 179 0 0 295 c0 162 -3 295 -6
295 -4 0 -51 -25 -107 -55 -55 -30 -104 -55 -108 -55 -19 0 25 277 49 309 19
25 74 51 140 66 l32 7 0 -126 c0 -69 4 -126 9 -126 5 0 29 12 55 26 l46 26 0
324 0 324 -55 0 -55 0 0 -150 0 -150 -161 0 c-143 0 -160 2 -155 16 3 9 6 20
6 25 0 5 13 9 30 9 29 0 70 29 70 50 0 6 -18 10 -40 10 -23 0 -40 5 -40 11 0
6 11 32 25 58 48 87 149 128 340 138 l125 6 0 104 c0 101 -1 103 -22 102 -13
-1 -63 -6 -113 -10z m-403 -349 c-16 -60 -16 -60 -54 -60 l-37 0 16 53 c20 68
19 67 58 67 l33 0 -16 -60z m-45 -162 c-3 -18 -17 -96 -30 -173 -14 -77 -28
-177 -32 -222 l-7 -81 -45 -7 c-25 -3 -48 -4 -51 0 -7 6 35 227 75 403 l27
112 34 0 c34 0 34 -1 29 -32z m-109 -785 c-11 -77 -20 -95 -58 -117 l-33 -19
5 76 c6 94 15 107 84 116 8 1 8 -16 2 -56z m-3 -173 c0 -18 -6 -26 -23 -28
-27 -4 -40 22 -22 44 19 22 45 13 45 -16z"/>
<path d="M1010 2298 l0 -48 692 0 c380 0 689 3 685 6 -3 3 -35 23 -70 44 l-65
38 -621 4 -621 4 0 -48z"/>
<path d="M3980 2250 c-10 -18 155 -16 -1552 -18 l-1418 -2 0 -45 0 -45 310 0
310 0 0 -228 0 -228 -121 -12 c-228 -24 -369 -74 -604 -214 -65 -38 -91 -60
-93 -76 l-3 -22 2132 0 2132 0 -7 31 c-3 17 -6 89 -6 160 l0 129 -315 0 -315
0 0 230 0 230 296 0 295 0 -3 48 -3 47 -293 0 c-230 0 -294 3 -301 13 -6 10
-58 14 -220 15 -179 2 -214 0 -221 -13z m-1652 -307 c2 -106 1 -208 -2 -228
l-7 -35 -334 0 -335 0 0 223 c0 123 3 227 7 230 4 4 155 6 336 5 l330 -3 5
-192z m692 -33 l0 -230 -335 0 -335 0 0 230 0 230 335 0 335 0 0 -230z m690 0
l0 -230 -335 0 -335 0 0 223 c0 123 3 227 7 230 3 4 154 7 335 7 l328 0 0
-230z m698 -2 l2 -228 -334 0 -335 0 -3 226 c-2 124 -1 228 1 230 3 2 153 3
335 2 l331 -3 3 -227z"/>
<path d="M5040 2187 c0 -46 3 -55 20 -60 20 -5 20 -14 20 -501 0 -464 1 -497
18 -502 9 -4 46 -19 81 -35 35 -16 64 -29 65 -29 0 0 1 152 0 338 -1 318 -12
524 -35 672 -9 54 -7 70 7 103 24 52 12 60 -91 65 l-85 5 0 -56z m185 -1095
c-3 -3 -16 5 -30 18 -24 23 -25 28 -25 157 0 133 5 158 39 197 15 17 16 4 19
-174 1 -106 0 -195 -3 -198z"/>
<path d="M800 1075 l0 -265 153 0 152 0 0 78 c1 56 7 89 22 123 75 166 287
197 405 59 43 -50 58 -98 58 -189 0 -69 1 -71 25 -71 l25 0 0 265 0 265 -420
0 -420 0 0 -265z m120 190 c0 -16 -55 -22 -64 -6 -8 13 5 21 36 21 18 0 28 -5
28 -15z m534 -65 c30 -12 60 -28 68 -37 9 -11 0 -9 -32 7 -32 17 -67 25 -126
28 -69 4 -89 1 -145 -21 -41 -17 -56 -20 -40 -9 73 52 185 65 275 32z m-536
-237 c2 -9 -7 -13 -27 -13 -30 0 -39 9 -24 24 11 10 46 3 51 -11z"/>
<path d="M1660 1075 l0 -265 330 0 330 0 0 265 0 265 -330 0 -330 0 0 -265z
m365 -110 c0 -15 -8 -21 -34 -23 -37 -4 -57 14 -39 36 6 7 25 12 42 10 23 -2
31 -8 31 -23z"/>
<path d="M2340 1075 l0 -265 290 0 290 0 0 265 0 265 -290 0 -290 0 0 -265z
m325 -110 c0 -15 -8 -21 -29 -23 -33 -4 -51 10 -42 33 9 25 71 16 71 -10z"/>
<path d="M2940 1075 l0 -265 285 0 285 0 0 265 0 265 -285 0 -285 0 0 -265z
m323 -97 c8 -25 -5 -38 -38 -38 -36 0 -50 12 -41 35 7 18 73 20 79 3z"/>
<path d="M3530 1075 l0 -265 85 0 85 0 0 68 c0 91 23 156 75 207 127 128 340
78 401 -92 7 -21 13 -71 14 -110 0 -71 1 -73 25 -73 l25 0 0 265 0 265 -355 0
-355 0 0 -265z m511 130 c24 -9 55 -25 69 -35 21 -17 16 -16 -30 5 -75 34
-181 35 -262 1 -32 -13 -58 -22 -58 -20 0 5 81 46 110 55 42 13 124 10 171 -6z"/>
<path d="M4250 1075 l0 -265 153 0 152 0 -3 265 -3 265 -149 0 -150 0 0 -265z
m178 -112 c2 -9 -7 -13 -27 -13 -30 0 -39 9 -24 24 11 10 46 3 51 -11z"/>
<path d="M4570 1075 l0 -265 23 1 c12 0 123 12 247 27 l225 27 0 235 0 235
-247 3 -248 2 0 -265z m428 33 c2 -167 1 -177 -17 -183 -28 -8 -258 -35 -309
-35 l-42 0 2 166 3 167 75 25 c106 35 135 40 215 39 l70 -2 3 -177z m62 -148
c0 -5 -11 -10 -25 -10 -14 0 -25 5 -25 10 0 6 11 10 25 10 14 0 25 -4 25 -10z"/>
<path d="M1275 1104 c-153 -56 -184 -279 -52 -375 l40 -29 -631 0 c-415 0
-632 -3 -632 -10 0 -7 163 -10 468 -11 388 0 462 -3 437 -13 -16 -7 -99 -39
-183 -71 -84 -32 -151 -59 -149 -62 2 -2 93 30 202 72 l199 75 474 0 474 0
-77 -85 -77 -85 -617 0 c-443 0 -612 3 -601 11 13 10 13 10 0 7 -45 -14 -170
-61 -167 -64 2 -2 30 5 62 16 56 19 84 20 689 20 l630 0 -40 -42 c-22 -24 -46
-52 -54 -64 -8 -11 12 8 45 43 l60 64 427 -1 427 0 4 -67 3 -68 2 68 2 67 428
0 427 0 64 -67 63 -68 -57 67 -57 68 579 2 578 3 -584 5 -583 5 -76 83 -75 83
489 -1 c1234 -1 1455 0 1449 10 -4 6 -226 10 -633 10 -622 0 -627 0 -596 19
68 42 111 131 100 209 -21 156 -190 238 -321 157 -138 -85 -133 -295 10 -369
27 -14 -78 -16 -1195 -16 -1199 0 -1224 0 -1195 19 123 76 141 235 39 338 -61
61 -136 77 -219 47z m155 -116 c60 -60 44 -154 -33 -192 -106 -51 -212 76
-145 174 42 63 125 71 178 18z m2596 -2 c29 -29 34 -41 34 -83 0 -58 -19 -90
-67 -109 -79 -33 -163 25 -163 112 0 39 5 51 34 80 29 29 41 34 81 34 40 0 52
-5 81 -34z m-1396 -391 l0 -85 -421 0 c-400 0 -421 1 -408 18 8 9 40 47 73 85
l59 67 348 0 349 0 0 -85z m766 18 c33 -38 65 -76 73 -85 13 -17 -8 -18 -408
-18 l-421 0 0 85 0 85 349 0 348 0 59 -67z"/>
<path d="M5080 989 l0 -120 58 7 c93 11 98 15 106 79 3 32 2 64 -4 75 -9 17
-127 80 -150 80 -6 0 -10 -47 -10 -121z"/>
<path d="M4340 667 c4 -4 91 -38 195 -78 290 -109 348 -130 352 -126 1 2 -115
48 -259 102 -300 112 -295 110 -288 102z"/>
</g>
</svg>
