<?xml version="1.0" standalone="no"?>
<!DOCTYPE svg PUBLIC "-//W3C//DTD SVG 20010904//EN"
 "http://www.w3.org/TR/2001/REC-SVG-20004/DTD/svg10.dtd">
<svg version="1.0" xmlns="http://www.w3.org/2000/svg"
 width="610.000000pt" height="453.000000pt" viewBox="0 0 610.000000 453.000000"
 preserveAspectRatio="xMidYMid meet">

<g transform="translate(0.000000,453.000000) scale(0.100000,-0.100000)"
fill="currentColor" stroke="none">
<path d="M1650 2820 c-349 -23 -545 -82 -655 -195 -49 -50 -73 -87 -45 -70 6
3 10 2 10 -2 0 -13 115 2 201 25 114 31 304 60 494 77 143 13 461 15 1993 15
l1822 0 0 30 0 30 -284 0 c-235 0 -285 2 -289 14 -5 12 -38 14 -182 11 -100
-2 -181 -8 -188 -13 -8 -7 -463 -13 -1357 -17 -740 -3 -1419 -10 -1510 -16
-324 -20 -555 -64 -653 -126 -47 -29 -61 -24 -18 6 108 77 368 123 815 142
143 7 262 12 263 13 0 0 3 19 5 41 l3 40 -155 1 c-85 1 -207 -2 -270 -6z"/>
<path d="M2090 2785 l0 -45 430 0 430 0 0 45 0 45 -430 0 -430 0 0 -45z"/>
<path d="M2975 2821 c-3 -2 -5 -22 -5 -43 l0 -38 208 0 c191 1 205 2 179 16
-52 28 -366 82 -382 65z"/>
<path d="M5482 2694 l3 -39 -1850 -1 c-1898 0 -1922 0 -2201 -39 -110 -15
-294 -52 -302 -60 -3 -3 21 -6 54 -6 32 -1 -32 -7 -144 -15 -221 -14 -282 -23
-342 -54 -77 -39 -100 -81 -119 -214 -10 -73 -7 -96 15 -96 17 0 40 43 55 106
18 75 45 120 86 145 34 21 52 24 170 27 88 3 133 0 133 -6 0 -6 -21 -12 -47
-14 l-48 -3 -57 -170 c-31 -93 -68 -219 -81 -279 -16 -75 -29 -111 -41 -118
-10 -5 -20 -7 -23 -4 -15 15 64 331 118 475 36 96 42 129 20 105 -5 -5 -27
-58 -49 -119 -63 -173 -120 -424 -138 -605 -7 -72 -6 -74 11 -60 10 8 29 38
41 65 13 28 24 44 24 37 0 -22 -29 -83 -55 -114 -23 -27 -25 -37 -25 -127 0
-119 12 -159 48 -167 15 -3 37 -10 50 -15 59 -24 57 -30 56 218 -1 126 1 207
3 181 2 -28 9 -48 16 -48 7 0 89 14 182 30 94 16 171 30 173 30 1 0 2 -90 2
-200 0 -171 2 -200 15 -200 13 0 15 37 15 270 0 180 -3 270 -10 270 -6 0 -91
-20 -190 -45 -99 -25 -187 -45 -197 -45 -42 0 12 21 142 55 226 59 680 213
870 295 80 34 101 61 139 180 33 101 48 170 61 273 5 39 10 47 27 47 20 0 21
-3 15 -107 -8 -131 -41 -327 -63 -369 -9 -17 -32 -40 -52 -51 -41 -23 -475
-156 -689 -213 l-43 -11 0 -64 c0 -35 3 -66 8 -69 7 -4 124 16 382 66 l115 23
1895 5 1895 5 3 158 3 157 -471 0 -470 0 0 210 0 211 479 -3 479 -3 25 -23
c27 -26 48 -95 67 -224 15 -105 -1 -138 -82 -162 -17 -5 -18 -27 -18 -274 l0
-269 38 -7 c63 -10 66 -9 50 17 -26 40 -29 76 -13 202 17 136 24 164 51 185
16 14 16 13 -1 -20 -20 -38 -45 -187 -45 -268 0 -65 22 -115 57 -131 l26 -12
-6 383 c-4 292 -9 408 -22 488 -19 114 -20 139 -10 186 7 30 5 32 -40 48 -26
8 -77 19 -112 22 l-65 7 4 -39z m-2572 -314 l0 -210 -413 0 c-228 0 -416 2
-419 5 -2 3 1 33 9 67 7 35 20 127 30 206 l17 142 388 0 388 0 0 -210z m840 0
l0 -210 -410 0 -410 0 0 210 0 210 410 0 410 0 0 -210z m845 0 l0 -205 -410 0
-410 0 -3 208 -2 207 412 -2 413 -3 0 -205z m-2561 113 c-17 -78 -59 -215 -80
-255 -27 -53 -74 -77 -314 -165 -91 -34 -409 -143 -415 -143 -2 0 -3 125 -2
278 l2 277 60 12 c159 32 443 59 636 62 l127 1 -14 -67z m-844 -118 l0 -75
-105 0 c-58 0 -105 2 -105 5 0 15 31 62 54 84 23 22 113 60 144 61 8 0 12 -21
12 -75z m0 -180 c0 -43 -1 -45 -38 -55 -95 -25 -135 -77 -152 -200 -6 -41 -15
-77 -21 -81 -17 -10 -120 -31 -126 -26 -11 12 63 343 88 390 8 15 26 17 129
17 l120 0 0 -45z m-7 -275 c-7 -5 -55 -21 -145 -46 -15 -5 -18 2 -18 43 1 65
29 142 61 165 14 11 43 25 65 33 l39 13 3 -101 c1 -55 -1 -103 -5 -107z m4345
23 l3 -53 -65 0 -66 0 0 55 0 56 63 -3 62 -3 3 -52z m177 -61 c0 -31 -19 -28
-23 4 -3 18 0 25 10 22 7 -3 13 -14 13 -26z m3 -78 c-5 -28 -28 -29 -28 -1 0
13 3 27 7 31 10 10 25 -10 21 -30z m2 -63 c0 -28 -17 -35 -29 -13 -11 21 -6
32 16 32 7 0 13 -9 13 -19z m0 -88 c0 -25 -1 -26 -16 -11 -9 9 -13 21 -10 27
13 20 26 11 26 -16z m-4903 -49 c-8 -47 -42 -84 -79 -84 -24 0 -28 4 -28 26 0
32 59 94 90 94 20 0 22 -4 17 -36z m-36 -155 c6 -16 10 -31 8 -33 -7 -6 -69 6
-69 14 0 4 12 5 26 2 24 -4 25 -3 15 17 -7 11 -19 21 -27 21 -8 0 -13 4 -10 9
11 17 44 -1 57 -30z"/>
<path d="M743 1597 c-25 -24 -34 -39 -30 -51 8 -20 44 -14 65 12 12 15 17 72
7 72 -3 0 -22 -15 -42 -33z"/>
<path d="M1845 1833 c-53 -5 -285 -42 -307 -49 -16 -5 -18 -25 -18 -225 l0
-219 23 0 c21 0 24 6 33 80 20 143 100 229 223 238 147 11 261 -107 261 -270
l0 -48 35 0 35 0 -2 248 -3 247 -120 1 c-66 0 -138 -1 -160 -3z m90 -137 c28
-13 66 -41 85 -62 l35 -38 -39 33 c-62 53 -121 75 -196 75 -87 0 -134 -18
-194 -73 -42 -39 -47 -41 -28 -14 67 96 224 133 337 79z"/>
<path d="M2140 1590 l0 -250 395 0 395 0 0 250 0 250 -395 0 -395 0 0 -250z
m760 -30 c0 -5 -14 -10 -31 -10 -17 0 -28 4 -24 10 3 6 17 10 31 10 13 0 24
-4 24 -10z"/>
<path d="M2940 1590 l0 -250 400 0 400 0 0 250 0 250 -400 0 -400 0 0 -250z"/>
<path d="M3760 1590 l0 -250 140 0 140 0 0 250 0 250 -140 0 -140 0 0 -250z
m85 -30 c4 -6 -7 -10 -24 -10 -17 0 -31 5 -31 10 0 6 11 10 24 10 14 0 28 -4
31 -10z"/>
<path d="M4060 1590 l0 -250 64 0 63 0 6 74 c6 88 31 140 87 189 110 94 278
67 354 -57 24 -39 31 -63 36 -125 l5 -76 33 -3 32 -3 0 250 0 251 -340 0 -340
0 0 -250z m471 115 c50 -17 113 -65 130 -98 7 -13 -4 -6 -27 17 -57 57 -115
80 -199 80 -80 0 -138 -22 -201 -75 l-39 -33 40 42 c69 74 193 102 296 67z"/>
<path d="M4750 1590 l0 -250 165 0 165 0 0 250 0 250 -165 0 -165 0 0 -250z
m90 -30 c0 -5 -14 -10 -31 -10 -17 0 -28 4 -24 10 3 6 17 10 31 10 13 0 24 -4
24 -10z"/>
<path d="M5097 1833 c-4 -3 -7 -116 -7 -250 l0 -243 38 5 c62 9 396 45 415 45
16 0 17 17 17 225 l0 225 -228 0 c-126 0 -232 -3 -235 -7z m403 -143 c0 -113
1 -120 20 -120 11 0 20 -4 20 -10 0 -5 -9 -10 -20 -10 -17 0 -20 -7 -20 -44 0
-25 -5 -48 -12 -52 -11 -7 -259 -33 -320 -34 l-28 0 0 188 c0 104 3 192 7 195
3 4 84 7 180 7 l173 0 0 -120z"/>
<path d="M1377 1756 l-108 -21 0 -195 -1 -195 116 -3 116 -3 0 221 c0 121 -3
219 -7 219 -5 -1 -57 -11 -116 -23z m-19 -123 c2 -9 -7 -13 -27 -13 -21 0 -31
5 -31 16 0 19 51 16 58 -3z m-8 -73 c0 -5 -12 -10 -26 -10 -14 0 -23 4 -19 10
3 6 15 10 26 10 10 0 19 -4 19 -10z"/>
<path d="M1015 1689 c-88 -15 -161 -28 -162 -29 -5 0 -3 -177 4 -257 l6 -83
168 0 169 0 0 200 c0 154 -3 200 -12 199 -7 0 -85 -14 -173 -30z"/>
<path d="M1758 1619 c-20 -6 -54 -26 -76 -45 -107 -91 -92 -282 28 -345 34
-19 24 -19 -587 -19 -404 0 -624 -4 -628 -10 -6 -10 215 -11 1449 -10 l489 1
-75 -83 -75 -83 -129 -5 -129 -6 124 -2 125 -2 -30 -32 c-16 -18 -38 -45 -49
-59 -11 -14 5 1 36 34 l55 59 165 1 164 1 -158 5 -159 6 72 83 72 82 350 0
349 0 -1 -87 c-2 -149 0 -227 5 -221 3 3 6 74 6 157 l-1 151 349 0 349 0 73
-82 c70 -80 72 -83 48 -90 -22 -7 -22 -7 4 -5 24 2 40 -10 89 -63 l60 -65 -59
71 c-32 39 -91 108 -132 153 l-73 81 475 0 c399 0 480 -2 510 -15 45 -19 63
-18 22 0 -26 12 35 14 453 15 314 0 482 3 482 10 0 7 -221 10 -642 10 l-641 0
40 29 c53 39 83 101 83 175 0 163 -162 260 -310 186 -19 -10 -43 -26 -52 -37
-27 -30 -58 -105 -58 -144 0 -73 43 -153 104 -190 31 -19 16 -19 -1199 -19
-1202 0 -1229 0 -1200 19 104 63 134 193 68 299 -48 78 -146 116 -235 91z
m131 -115 c80 -67 48 -191 -54 -210 -63 -11 -135 49 -135 113 0 102 113 161
189 97z m2601 11 c65 -34 79 -122 29 -179 -38 -44 -83 -54 -133 -31 -44 21
-66 59 -66 116 0 33 6 47 34 75 39 39 86 45 136 19z"/>
<path d="M5570 1505 l0 -105 43 0 c92 0 117 28 117 128 l0 59 -39 11 c-21 7
-57 12 -80 12 l-41 0 0 -105z m146 -12 c-11 -11 -19 6 -11 24 8 17 8 17 12 0
3 -10 2 -21 -1 -24z"/>
<path d="M1410 1170 c-8 -5 -10 -10 -5 -10 6 0 17 5 25 10 8 5 11 10 5 10 -5
0 -17 -5 -25 -10z"/>
<path d="M1227 1103 c-81 -31 -145 -58 -143 -60 3 -4 297 105 305 113 11 11
-26 -1 -162 -53z"/>
<path d="M4910 1152 c8 -5 26 -13 40 -16 17 -5 20 -4 10 2 -8 5 -26 13 -40 16
-17 5 -20 4 -10 -2z"/>
<path d="M5005 1116 c17 -7 41 -16 55 -20 20 -5 19 -3 -5 8 -16 7 -41 16 -55
20 -20 5 -19 3 5 -8z"/>
<path d="M5100 1082 c8 -5 26 -13 40 -16 17 -5 20 -4 10 2 -8 5 -26 13 -40 16
-17 5 -20 4 -10 -2z"/>
<path d="M5180 1050 c8 -5 20 -10 25 -10 6 0 3 5 -5 10 -8 5 -19 10 -25 10 -5
0 -3 -5 5 -10z"/>
<path d="M987 1012 c-37 -13 -66 -26 -64 -28 4 -5 109 29 132 43 30 18 8 14
-68 -15z"/>
<path d="M5240 1026 c14 -9 32 -15 40 -15 13 0 13 1 0 8 -8 5 -26 12 -40 15
l-25 7 25 -15z"/>
<path d="M1318 1013 c34 -2 88 -2 120 0 31 2 3 3 -63 3 -66 0 -92 -1 -57 -3z"/>
<path d="M2928 1013 c29 -2 74 -2 100 0 26 2 2 3 -53 3 -55 0 -76 -1 -47 -3z"/>
<path d="M3258 1013 c46 -2 118 -2 160 0 42 1 5 3 -83 3 -88 0 -123 -2 -77 -3z"/>
<path d="M3853 1013 c15 -2 37 -2 50 0 12 2 0 4 -28 4 -27 0 -38 -2 -22 -4z"/>
<path d="M4107 1013 c18 -2 50 -2 70 0 21 2 7 4 -32 4 -38 0 -55 -2 -38 -4z"/>
<path d="M4438 1013 c18 -2 45 -2 60 0 15 2 0 4 -33 4 -33 0 -45 -2 -27 -4z"/>
<path d="M4578 1013 c7 -3 16 -2 19 1 4 3 -2 6 -13 5 -11 0 -14 -3 -6 -6z"/>
<path d="M4673 1013 c9 -2 23 -2 30 0 6 3 -1 5 -18 5 -16 0 -22 -2 -12 -5z"/>
<path d="M4768 1013 c29 -2 74 -2 100 0 26 2 2 3 -53 3 -55 0 -76 -1 -47 -3z"/>
<path d="M5310 1002 c8 -5 26 -13 40 -16 17 -5 20 -4 10 2 -8 5 -26 13 -40 16
-17 5 -20 4 -10 -2z"/>
</g>
</svg>
